# xmcd
# 
# Track frame offsets:
#     150
#     12845
#     24532
#     36502
#     46914
#     61816
#     73094
#     85781
#     98257
#     112463
#     126459
#     140191
#     151927
#     166136
#     179570
#     193764
#     207525
#     220735
#     230807
#     243004
#     257664
#     270495
#     285829
#     298120
#     313137
#     327440
#     340888
# 
# Disc length: 4718
# 
# Revision: 2
# Processed by: cddbd v1.5.2PL0 Copyright (c) Steve Scherf et al.
# Submitted via: fre:ac v1.0.31
# 
DISCID=9b126c1b
DTITLE=Muddy Waters - Essential Original Albums Disc 2
DYEAR=1955
DGENRE=Blues
TTITLE0=Train Fare Home
TTITLE1=Sittin' Here and Drinkin'
TTITLE2=You're Gonna Miss Me
TTITLE3=Mean Red Spider
TTITLE4=Streamline Woman
TTITLE5=Muddy Jumps One
TTITLE6=Little Geneva
TTITLE7=Canary Bird
TTITLE8=Screaming and Crying
TTITLE9=Where's My Woman Been
TTITLE10=Rollin' and Tumblin' (Part 1)
TTITLE11=Rollin' and Tumblin' (Part 2)
TTITLE12=Rollin' Stone
TTITLE13=Walkin' Blues
TTITLE14=You're Gonna Need My Help
TTITLE15=Sad Letter Blues
TTITLE16=Louisiana Blues
TTITLE17=Evans Shuffle
TTITLE18=Long Distance Call
TTITLE19=Too Young to Know
TTITLE20=Appealing Blues
TTITLE21=Honey Bee
TTITLE22=My Fault
TTITLE23=Still a Fool
TTITLE24=Early Morning Blues
TTITLE25=She Moves Me
TTITLE26=All Night Long
EXTD=
EXTT0=
EXTT1=
EXTT2=
EXTT3=
EXTT4=
EXTT5=
EXTT6=
EXTT7=
EXTT8=
EXTT9=
EXTT10=
EXTT11=
EXTT12=
EXTT13=
EXTT14=
EXTT15=
EXTT16=
EXTT17=
EXTT18=
EXTT19=
EXTT20=
EXTT21=
EXTT22=
EXTT23=
EXTT24=
EXTT25=
EXTT26=
PLAYORDER=
